<svg width="92.713867" height="38.000000" viewBox="0 0 92.7139 38" fill="none" xmlns="http://www.w3.org/2000/svg" xmlns:xlink="http://www.w3.org/1999/xlink">
	<desc>
			Created with Pixso.
	</desc>
	<defs/>
	<rect id="Logo/Landie" width="79.000000" height="38.000000" fill="#FFFFFF" fill-opacity="0"/>
	<path id="Landie" d="M5.85254 24.5723L13.6094 24.5723L13.6094 28L1.39648 28L1.39648 9.51562L5.85254 9.51562L5.85254 24.5723ZM23.0293 28Q22.8008 27.5811 22.623 26.7686Q21.4424 28.2539 19.3223 28.2539Q17.3799 28.2539 16.0215 27.0796Q14.6631 25.9053 14.6631 24.1279Q14.6631 21.8936 16.3135 20.751Q17.9639 19.6084 21.1123 19.6084L22.4326 19.6084L22.4326 18.8848Q22.4326 16.9932 20.7949 16.9932Q19.2715 16.9932 19.2715 18.4912L14.9932 18.4912Q14.9932 16.498 16.688 15.2539Q18.3828 14.0098 21.0107 14.0098Q23.6387 14.0098 25.1621 15.292Q26.6855 16.5742 26.7236 18.8086L26.7236 24.8896Q26.749 26.7812 27.3076 27.7842L27.3076 28L23.0293 28ZM20.3506 25.207Q21.1504 25.207 21.6772 24.8643Q22.2041 24.5215 22.4326 24.0898L22.4326 21.8936L21.1885 21.8936Q18.9541 21.8936 18.9541 23.8994Q18.9541 24.4834 19.3477 24.8452Q19.7412 25.207 20.3506 25.207ZM33.0205 14.2637L33.1602 15.876Q34.582 14.0098 37.083 14.0098Q39.2285 14.0098 40.2886 15.292Q41.3486 16.5742 41.3867 19.1514L41.3867 28L37.0957 28L37.0957 19.3291Q37.0957 18.2881 36.6768 17.7993Q36.2578 17.3105 35.1533 17.3105Q33.8965 17.3105 33.2871 18.3008L33.2871 28L29.0088 28L29.0088 14.2637L33.0205 14.2637ZM43.2148 21.0303Q43.2148 17.7676 44.624 15.8887Q46.0332 14.0098 48.5596 14.0098Q50.4004 14.0098 51.6572 15.457L51.6572 8.5L55.9482 8.5L55.9482 28L52.1016 28L51.8857 26.5273Q50.5654 28.2539 48.5342 28.2539Q46.084 28.2539 44.6494 26.375Q43.2148 24.4961 43.2148 21.0303ZM47.4932 21.2969Q47.4932 24.9531 49.626 24.9531Q51.0479 24.9531 51.6572 23.7598L51.6572 18.5293Q51.0732 17.3105 49.6514 17.3105Q47.6709 17.3105 47.5059 20.5098L47.4932 21.2969ZM62.8926 28L58.6016 28L58.6016 14.2637L62.8926 14.2637L62.8926 28ZM58.3477 10.7217Q58.3477 9.80762 59.0078 9.22363Q59.668 8.63965 60.7217 8.63965Q61.7754 8.63965 62.4355 9.22363Q63.0957 9.80762 63.0957 10.7217Q63.0957 11.6357 62.4355 12.2197Q61.7754 12.8037 60.7217 12.8037Q59.668 12.8037 59.0078 12.2197Q58.3477 11.6357 58.3477 10.7217ZM69.4561 14.2637L69.5957 15.876Q71.0176 14.0098 73.5186 14.0098Q75.6641 14.0098 76.7241 15.292Q77.7842 16.5742 77.8223 19.1514L77.8223 28L73.5312 28L73.5312 19.3291Q73.5312 18.2881 73.1123 17.7993Q72.6934 17.3105 71.5889 17.3105Q70.332 17.3105 69.7227 18.3008L69.7227 28L65.4443 28L65.4443 14.2637L69.4561 14.2637ZM79.6885 21.0303Q79.6885 18.9482 80.374 17.3486Q81.0596 15.749 82.3418 14.8794Q83.624 14.0098 85.3252 14.0098Q87.4707 14.0098 88.6768 15.457L88.8291 14.2637L92.7139 14.2637L92.7139 27.4795Q92.7139 29.2949 91.8696 30.6343Q91.0254 31.9736 89.4258 32.6909Q87.8262 33.4082 85.7188 33.4082Q84.208 33.4082 82.7925 32.8369Q81.377 32.2656 80.6279 31.3516L82.418 28.8379Q83.6113 30.2471 85.5664 30.2471Q88.4102 30.2471 88.4102 27.3271L88.4102 26.8955Q87.1787 28.2539 85.2998 28.2539Q82.7861 28.2539 81.2373 26.3306Q79.6885 24.4072 79.6885 21.1826L79.6885 21.0303ZM83.9795 21.2969Q83.9795 22.9854 84.6143 23.9692Q85.249 24.9531 86.3916 24.9531Q87.7754 24.9531 88.4102 24.0264L88.4102 18.25Q87.7881 17.3105 86.417 17.3105Q85.2744 17.3105 84.627 18.3325Q83.9795 19.3545 83.9795 21.2969Z" fill="#37447E" fill-opacity="1.000000" fill-rule="evenodd"/>
</svg>
